<svg width="201" height="200" viewBox="0 0 201 200" fill="none" xmlns="http://www.w3.org/2000/svg">
<g clip-path="url(#clip0)">
<path d="M165.276 117.188V182.422C165.276 192.149 157.425 200 147.698 200H53.9482C44.2213 200 36.3701 192.149 36.3701 182.422V70.3125H94.9639L100.823 74.1801L165.276 117.188Z" fill="#E5E5E5"/>
<path d="M165.276 117.188V182.422C165.276 192.149 157.425 200 147.698 200H100.823V74.1802L165.276 117.188Z" fill="#C8C6CD"/>
<path d="M165.276 64.4531V70.3125H153.558V64.4531C153.558 35.2734 130.003 11.7188 100.823 11.7188C71.6436 11.7188 48.0889 35.2734 48.0889 64.4531V70.3125H36.3701V64.4531C36.3701 28.8285 65.1986 0 100.823 0C136.448 0 165.276 28.8285 165.276 64.4531Z" fill="#57555C"/>
<path d="M159.417 70.3125H42.2295C38.9908 70.3125 36.3701 67.6918 36.3701 64.4531C36.3701 61.2145 38.9908 58.5938 42.2295 58.5938H159.417C162.656 58.5938 165.276 61.2145 165.276 64.4531C165.276 67.6918 162.656 70.3125 159.417 70.3125Z" fill="black"/>
<path d="M94.9639 82.0312H36.3701C29.8979 82.0312 24.6514 76.7848 24.6514 70.3125C24.6514 63.8402 29.8979 58.5938 36.3701 58.5938H94.9639L106.683 72.5098L94.9639 82.0312Z" fill="#AEADB3"/>
<path d="M176.995 70.3125C176.995 76.7578 171.722 82.0312 165.276 82.0312V117.188C165.276 123.633 160.003 128.906 153.558 128.906C147.112 128.906 141.839 123.633 141.839 117.188V140.625C141.839 147.07 136.565 152.344 130.12 152.344C123.675 152.344 118.401 147.07 118.401 140.625V93.75C118.401 100.195 113.128 105.469 106.683 105.469C104.573 105.469 102.581 104.883 100.823 103.828C97.3076 101.836 94.9639 98.0859 94.9639 93.75C94.9639 93.75 94.9639 59.1797 94.9639 58.5938H165.276C171.722 58.5938 176.995 63.8672 176.995 70.3125Z" fill="#FEA832"/>
<path d="M165.276 64.4531V70.3125H153.558V64.4531C153.558 35.2734 130.003 11.7188 100.823 11.7188V0C136.448 0 165.276 28.8285 165.276 64.4531Z" fill="#3C3A41"/>
<path d="M176.995 70.3125C176.995 76.7578 171.722 82.0312 165.276 82.0312V117.188C165.276 123.633 160.003 128.906 153.558 128.906C147.112 128.906 141.839 123.633 141.839 117.188V140.625C141.839 147.07 136.565 152.344 130.12 152.344C123.675 152.344 118.401 147.07 118.401 140.625V93.75C118.401 100.195 113.128 105.469 106.683 105.469C104.573 105.469 102.581 104.883 100.823 103.828V58.5938H165.276C171.722 58.5938 176.995 63.8672 176.995 70.3125Z" fill="#FE9923"/>
</g>
<defs>
<clipPath id="clip0">
<rect width="200" height="200" fill="white" transform="translate(0.823242)"/>
</clipPath>
</defs>
</svg>
