<svg width="87" height="151" viewBox="0 0 87 151" fill="none" xmlns="http://www.w3.org/2000/svg">
<path d="M3.40662 6.67221C3.26242 5.01174 3.95479 3.38901 5.25484 2.34379C6.55145 1.2551 8.19482 0.663874 9.88854 0.67874C10.5626 0.684458 11.2321 0.773657 11.8832 0.946337C22.2344 3.64403 32.8637 5.13639 43.5581 5.39255C54.2526 5.13639 64.8807 3.64403 75.2319 0.946337C77.5436 0.304792 80.0235 0.83198 81.8752 2.35751C83.1683 3.40388 83.8561 5.02547 83.7096 6.68251C81.9736 23.4759 73.5954 43.5045 43.5581 43.5045C35.7247 43.7743 27.9622 41.9458 21.074 38.2074C21.0362 38.1891 21.0065 38.1594 20.9698 38.1411C8.87345 31.0509 4.58994 18.1194 3.40662 6.67221ZM66.8136 64.1277C64.9723 64.3301 63.195 64.5085 61.483 64.664L59.7767 46.6927C61.5482 46.1736 63.2831 45.5412 64.9734 44.7978L66.8136 64.1277ZM27.3396 46.6825L25.6333 64.6503C23.9201 64.5005 22.144 64.3221 20.3026 64.1151L22.1428 44.7738C23.832 45.5217 25.5681 46.1587 27.3396 46.6825ZM7.09161 149.582C6.90507 150.173 6.35576 150.573 5.73663 150.569C5.3132 150.573 4.91152 150.383 4.64601 150.054C4.36907 149.724 4.25577 149.289 4.33817 148.868L16.0145 92.9423C18.6993 94.0299 21.4402 94.9756 24.2234 95.7761L7.09161 149.582ZM23.4681 115.774L25.1721 110.421H61.9327L63.6367 115.774H23.4681ZM82.7724 148.846C82.8605 149.274 82.7495 149.719 82.4691 150.054C82.2036 150.383 81.8019 150.573 81.3796 150.569C80.7559 150.573 80.2043 150.167 80.0212 149.571L62.8917 95.7715C65.6761 94.9699 68.4158 94.0242 71.1017 92.9366L82.7724 148.846ZM85.8154 75.1209C82.2814 81.7913 73.5897 87.2325 60.6876 90.8599C49.485 94.0104 37.6301 94.0104 26.4286 90.8599C13.5255 87.2325 4.8337 81.7913 1.30091 75.1209C0.384242 73.4307 0.536448 71.3631 1.68887 69.8238C2.90537 68.1279 4.99506 67.2931 7.04583 67.6831C19.1159 69.6957 31.3221 70.7799 43.5581 70.9274C55.7907 70.7799 67.9947 69.6946 80.0613 67.6831C82.1121 67.2931 84.2029 68.1279 85.4182 69.8238C86.5741 71.3608 86.7286 73.4295 85.8154 75.1209Z" fill="white"/>
</svg>
