<svg width="81" height="81" viewBox="0 0 81 81" fill="none" xmlns="http://www.w3.org/2000/svg">
<path fill-rule="evenodd" clip-rule="evenodd" d="M0.623856 80.4438H80.6239V0.443848H0.623856V80.4438Z" stroke="white" stroke-width="0.5" stroke-miterlimit="22.9256" stroke-linejoin="bevel"/>
<path fill-rule="evenodd" clip-rule="evenodd" d="M4.43394 76.6339H76.814V4.25391H4.43394V76.6339Z" stroke="white" stroke-width="0.5" stroke-miterlimit="22.9256" stroke-linejoin="bevel"/>
<path d="M40.6265 7.1084V73.7759" stroke="#333333" stroke-width="0.100073" stroke-miterlimit="22.9256" stroke-linejoin="bevel"/>
<path d="M7.29121 40.4443H73.9587" stroke="#333333" stroke-width="0.100073" stroke-miterlimit="22.9256" stroke-linejoin="bevel"/>
<path d="M64.1856 68.319L59.489 53.0215L54.5815 68.204L53.2301 68.319L47.8817 50.6733C47.7379 50.2228 47.575 49.8729 47.3929 49.6285C47.2108 49.3841 46.9568 49.2116 46.6261 49.1061L45.4088 48.7036L45.3801 48.0853C46.2571 48.1237 47.2875 48.1428 48.4856 48.1428C49.5639 48.1428 50.7859 48.1237 52.1518 48.0853L52.2045 48.7036L50.9441 49.0918C50.7572 49.1397 50.623 49.2116 50.5415 49.3074C50.4648 49.4081 50.4217 49.5422 50.4217 49.7244C50.4217 49.916 50.46 50.17 50.5511 50.4816C50.6326 50.7931 50.7476 51.2004 50.8914 51.7132L54.5096 64.0585L59.4698 48.1333L60.6727 48.0278L65.5035 64.2023L69.2751 51.7132C69.4333 51.1669 69.5579 50.7308 69.6489 50.4049C69.7352 50.079 69.7831 49.8298 69.7831 49.6621C69.7831 49.4895 69.74 49.3649 69.6633 49.2882C69.5818 49.2116 69.4524 49.1445 69.2751 49.0965L68.0147 48.7371L67.9907 48.0901C68.9492 48.1285 69.9269 48.1476 70.9189 48.1476C71.8822 48.1476 72.8167 48.1285 73.7273 48.0901L73.78 48.7084L72.4285 49.1684C72.165 49.2499 71.9493 49.3889 71.7911 49.571C71.6378 49.7531 71.4796 50.0646 71.3311 50.5151L65.5226 68.2087L64.176 68.3238L64.1856 68.319Z" fill="white" stroke="#F49A30" stroke-width="0.100073" stroke-miterlimit="22.9256"/>
<path d="M27.8503 13.0331C26.6714 12.6449 25.5931 12.4484 24.6058 12.4484C23.125 12.4484 21.9412 12.8031 21.0594 13.5219C20.1824 14.236 19.7367 15.2328 19.7367 16.5028C19.7367 17.2313 19.8901 17.8782 20.2016 18.4246C20.5083 18.9757 20.9252 19.4597 21.4476 19.8719C21.9652 20.2936 22.5547 20.6578 23.2208 20.9885C23.8822 21.3096 24.5675 21.6307 25.272 21.947C26.0484 22.2825 26.8008 22.6371 27.5292 23.0157C28.2577 23.3895 28.919 23.8304 29.5085 24.3384C30.098 24.8464 30.5724 25.4455 30.927 26.1548C31.2769 26.8592 31.4542 27.6883 31.4542 28.6324C31.4542 30.8609 30.582 32.567 28.8328 33.746C27.0883 34.9249 24.8311 35.5144 22.0611 35.5144C20.2735 35.5144 18.3038 35.2124 16.1376 34.6086L16.0322 34.4696L16.8613 28.7475L17.6137 28.6324L18.7974 33.3961C19.9859 33.8658 21.1984 34.1006 22.4444 34.1006C24.117 34.1006 25.4205 33.7316 26.3599 32.9935C27.2944 32.2603 27.7688 31.206 27.7688 29.8449C27.7688 29.1261 27.6203 28.4935 27.3136 27.9519C27.0116 27.4056 26.5995 26.9407 26.0915 26.5429C25.5787 26.15 24.9988 25.7953 24.3518 25.4742C23.7001 25.1579 23.0243 24.8416 22.3294 24.5253C21.5483 24.1851 20.7815 23.8256 20.0434 23.4327C19.3006 23.0349 18.6297 22.5844 18.0258 22.0572C17.4268 21.5349 16.9475 20.8975 16.5881 20.1403C16.2239 19.3831 16.0466 18.4965 16.0466 17.4853C16.0466 15.4581 16.8948 13.8814 18.5961 12.7743C20.2974 11.6672 22.4061 11.1113 24.9173 11.1113C26.6905 11.1113 28.55 11.3174 30.4909 11.7296L30.6107 11.8494L29.6139 17.1019L28.9334 17.2169L27.8407 13.0379L27.8503 13.0331Z" fill="white" stroke="#F49A30" stroke-width="0.100073" stroke-miterlimit="22.9256"/>
<path fill-rule="evenodd" clip-rule="evenodd" d="M73.9578 40.4445H40.6265V7.1084H73.9578V40.4445Z" fill="#F49A30" stroke="white" stroke-width="0.5" stroke-miterlimit="22.9256"/>
<path fill-rule="evenodd" clip-rule="evenodd" d="M40.6273 73.7757H7.29121V40.4443H40.6273V73.7757Z" fill="#F49A30" stroke="white" stroke-width="0.5" stroke-miterlimit="22.9256"/>
</svg>
