<svg width="41" height="41" viewBox="0 0 41 41" fill="none" xmlns="http://www.w3.org/2000/svg">
<g clip-path="url(#clip0)">
<path d="M36.6217 5.10547H3.65295C3.11177 5.10547 2.60513 5.23852 2.14677 5.45781L20.0592 23.3702L24.074 19.5119C24.074 19.5119 24.0743 19.5115 24.0744 19.5113C24.0744 19.5112 24.0747 19.511 24.0747 19.511L38.1284 5.45813C37.67 5.23867 37.163 5.10547 36.6217 5.10547Z" fill="#F49A30"/>
<path d="M39.7855 7.11548L26.5602 20.34L39.785 33.5648C40.0043 33.1064 40.1373 32.5998 40.1373 32.0586V8.6211C40.1373 8.08024 40.0046 7.57368 39.7855 7.11548Z" fill="#F49A30"/>
<path d="M0.489673 7.11475C0.270376 7.57311 0.137329 8.07975 0.137329 8.62092V32.0584C0.137329 32.5993 0.27022 33.106 0.48936 33.5642L13.7146 20.3397L0.489673 7.11475Z" fill="#F49A30"/>
<path d="M24.9031 21.9972L20.8878 25.8561C20.6589 26.085 20.3591 26.1994 20.0593 26.1994C19.7595 26.1994 19.4596 26.085 19.2308 25.8561L15.3717 21.9971L2.14624 35.2217C2.60468 35.4411 3.11163 35.5743 3.65296 35.5743H36.6217C37.1629 35.5743 37.6695 35.4413 38.1279 35.222L24.9031 21.9972Z" fill="#F49A30"/>
</g>
<defs>
<clipPath id="clip0">
<rect x="0.137329" y="0.339844" width="40" height="40" fill="white"/>
</clipPath>
</defs>
</svg>
