<svg width="200" height="200" viewBox="0 0 200 200" fill="none" xmlns="http://www.w3.org/2000/svg">
<path d="M87.1688 38.5141C90.7973 48.4969 80.3333 56.9789 78.7391 58.1981C78.6079 58.2985 78.4532 58.3547 78.2883 58.3618C76.2829 58.4504 62.8094 58.6637 59.1805 48.6809C53.902 34.1598 62.1024 21.7024 63.8598 19.275C64.052 19.0098 64.3825 18.8895 64.7005 18.97C67.6063 19.7036 81.8907 23.993 87.1688 38.5141Z" fill="#CEE883"/>
<path d="M87.1688 38.5141C82.0309 24.3785 68.3625 19.9398 64.9598 19.0371C69.2957 22.0352 73.7539 26.5953 76.2301 33.4078C79.8586 43.3906 69.3945 51.8727 67.8004 53.0918C67.6691 53.1922 67.5145 53.2484 67.3496 53.2555C66.6332 53.2871 64.4496 53.332 61.7773 52.925C67.0547 58.5891 76.6231 58.4352 78.2883 58.3617C78.4531 58.3543 78.6082 58.298 78.7391 58.198C80.3336 56.9789 90.7977 48.4969 87.1688 38.5141Z" fill="#85A42E"/>
<path d="M88.3946 76.8911L71.9673 31.699C71.4145 30.179 69.7337 29.3943 68.2134 29.9466C66.6923 30.499 65.9075 32.179 66.4602 33.6993L82.8872 78.8915C84.2102 82.5306 89.7192 80.5357 88.3946 76.8911Z" fill="#73553A"/>
<path d="M135.367 151.962C135.367 168.029 124.091 181.055 110.18 181.055H25.1895V122.872H110.179C124.091 122.872 135.367 135.898 135.367 151.962Z" fill="#73553A"/>
<path d="M25.1891 181.054C39.1006 181.054 50.3781 168.03 50.3781 151.963C50.3781 135.897 39.1006 122.873 25.1891 122.873C11.2775 122.873 0 135.897 0 151.963C0 168.03 11.2775 181.054 25.1891 181.054Z" fill="#DDB991"/>
<path d="M167.438 99.9774C167.438 116.045 156.162 129.07 142.251 129.07H57.2607V70.8879H142.251C156.162 70.8879 167.438 83.9141 167.438 99.9774Z" fill="#73553A"/>
<path d="M200 151.962C200 168.029 188.724 181.055 174.813 181.055H89.8232V122.872H174.813C188.724 122.872 200 135.898 200 151.962Z" fill="#B28A67"/>
<path d="M118.239 92.7066C118.239 91.0894 116.927 89.7781 115.309 89.7781H81.6562C80.0383 89.7781 78.7266 91.0894 78.7266 92.7066C78.7266 94.3238 80.0383 95.6351 81.6562 95.6351H115.309C116.927 95.6351 118.239 94.3242 118.239 92.7066Z" fill="#F49A30"/>
<path d="M166.43 108.141C165.914 110.195 165.203 112.159 164.324 113.998H115.309C113.691 113.998 112.379 112.69 112.379 111.07C112.379 109.453 113.691 108.141 115.309 108.141H166.43Z" fill="#F49A30"/>
<path d="M133.488 95.6351H144.912C146.53 95.6351 147.841 94.3238 147.841 92.7066C147.841 91.0894 146.53 89.7781 144.912 89.7781H133.488C131.87 89.7781 130.559 91.0894 130.559 92.7066C130.559 94.3242 131.87 95.6351 133.488 95.6351Z" fill="#F49A30"/>
<path d="M175.009 141.81C175.009 140.192 173.697 138.881 172.079 138.881H113.434C111.816 138.881 110.504 140.192 110.504 141.81C110.504 143.427 111.816 144.738 113.434 144.738H172.079C173.697 144.738 175.009 143.427 175.009 141.81Z" fill="#F49A30"/>
<path d="M198.684 161.265C198.078 163.331 197.281 165.295 196.309 167.122H158.492C156.875 167.122 155.562 165.81 155.562 164.193C155.562 162.573 156.875 161.265 158.492 161.265H198.684Z" fill="#F49A30"/>
<path d="M137.555 161.263H128.127C126.509 161.263 125.197 162.575 125.197 164.192C125.197 165.809 126.509 167.12 128.127 167.12H137.555C139.173 167.12 140.484 165.809 140.484 164.192C140.484 162.575 139.173 161.263 137.555 161.263Z" fill="#F49A30"/>
<path d="M57.2604 129.069C71.1719 129.069 82.4494 116.045 82.4494 99.9788C82.4494 83.9125 71.1719 70.8882 57.2604 70.8882C43.3488 70.8882 32.0713 83.9125 32.0713 99.9788C32.0713 116.045 43.3488 129.069 57.2604 129.069Z" fill="#DDB991"/>
<path d="M89.8219 181.054C103.733 181.054 115.011 168.03 115.011 151.963C115.011 135.897 103.733 122.873 89.8219 122.873C75.9103 122.873 64.6328 135.897 64.6328 151.963C64.6328 168.03 75.9103 181.054 89.8219 181.054Z" fill="#DDB991"/>
<path d="M25.1893 132.906C15.8728 132.906 8.29395 141.455 8.29395 151.963C8.29395 153.58 9.60566 154.892 11.2236 154.892C12.8416 154.892 14.1533 153.58 14.1533 151.963C14.1533 144.685 19.1041 138.763 25.1893 138.763C31.2744 138.763 36.2252 144.685 36.2252 151.963C36.2252 159.242 31.2744 165.163 25.1893 165.163C23.5713 165.163 22.2596 166.475 22.2596 168.092C22.2596 169.709 23.5713 171.02 25.1893 171.02C34.5053 171.02 42.0846 162.471 42.0846 151.963C42.0846 141.455 34.5053 132.906 25.1893 132.906Z" fill="#F49A30"/>
<path d="M74.2398 99.9791C74.2398 89.4169 66.6227 80.824 57.2598 80.824C47.8969 80.824 40.2793 89.4169 40.2793 99.9791C40.2793 110.541 47.8965 119.134 57.2598 119.134C58.8777 119.134 60.1895 117.823 60.1895 116.206C60.1895 114.588 58.8777 113.277 57.2598 113.277C51.1277 113.277 46.1387 107.311 46.1387 99.9791C46.1387 92.6466 51.1273 86.681 57.2598 86.681C63.3922 86.681 68.3805 92.6466 68.3805 99.9791C68.3805 101.596 69.6922 102.908 71.3102 102.908C72.9281 102.908 74.2398 101.596 74.2398 99.9791Z" fill="#F49A30"/>
<path d="M89.8221 132.087C88.2041 132.087 86.8924 133.398 86.8924 135.016C86.8924 136.633 88.2041 137.944 89.8221 137.944C96.2982 137.944 101.567 144.233 101.567 151.963C101.567 159.693 96.2982 165.982 89.8221 165.982C83.3459 165.982 78.0771 159.693 78.0771 151.963C78.0771 150.346 76.7654 149.035 75.1475 149.035C73.5295 149.035 72.2178 150.346 72.2178 151.963C72.2178 162.923 80.115 171.839 89.8221 171.839C99.5291 171.839 107.426 162.923 107.426 151.963C107.426 141.004 99.5291 132.087 89.8221 132.087Z" fill="#F49A30"/>
</svg>
