<svg width="40" height="40" viewBox="0 0 40 40" fill="none" xmlns="http://www.w3.org/2000/svg">
<path d="M28.5878 25.1573H26.7696L26.1407 24.5283C28.382 21.9326 29.7312 18.5592 29.7312 14.8657C29.7312 6.65523 23.076 0 14.8657 0C6.65534 0 0 6.65523 0 14.8657C0 23.0761 6.65523 29.7313 14.8657 29.7313C18.5592 29.7313 21.9326 28.382 24.5283 26.1521L25.1573 26.7811V28.5878L36.5923 40L40 36.5923L28.5878 25.1573ZM14.8657 25.1573C9.18246 25.1573 4.57408 20.5489 4.57408 14.8657C4.57408 9.18246 9.18246 4.57408 14.8657 4.57408C20.5489 4.57408 25.1573 9.18246 25.1573 14.8657C25.1573 20.5489 20.5489 25.1573 14.8657 25.1573Z" fill="white"/>
</svg>
