<svg width="201" height="200" viewBox="0 0 201 200" fill="none" xmlns="http://www.w3.org/2000/svg">
<g clip-path="url(#clip0)">
<path d="M24.0256 97.7078H10.5896C5.06216 97.7078 0.578125 102.192 0.578125 107.723V117.554C0.578125 123.085 5.06216 127.569 10.5896 127.569H24.0256L33.6681 124.683V103.993L24.0256 97.7078Z" fill="#59422D"/>
<path d="M30.21 97.7078H24.0254V127.569H30.21H75.5962V97.7078H30.21Z" fill="#D4F2F6"/>
<path d="M28.2168 98.0127V127.264H30.4669H69.9441V98.0127H30.4669H28.2168Z" fill="#73553A"/>
<path d="M187.941 163.655C192.51 168.723 188.912 176.809 182.087 176.809H154.172H107.688H45.8822C41.5312 176.809 38.002 173.284 38.002 168.932V17.8733C38.002 10.6577 46.9015 7.23728 51.7361 12.5996L108.091 75.0981L155.401 127.569L187.941 163.655ZM146.634 154.699L98.6432 97.7076L61.0921 56.0681C60.7642 55.7043 60.1603 55.9364 60.1603 56.4263V154.116C60.1603 154.411 60.3996 154.65 60.6949 154.65H107.688L146.634 154.699Z" fill="#F49A30"/>
<path d="M154.172 176.809H163.841V136.929L155.4 127.569L108.091 75.0982L98.0186 63.928V97.0152L98.643 97.7077L146.634 154.699L107.688 154.651H98.0186V176.809H107.688H154.172Z" fill="#FFDD55"/>
<path d="M153.769 3.08775V196.912C153.769 198.613 152.391 199.99 150.691 199.99H111.169C109.469 199.99 108.091 198.613 108.091 196.912V3.08775C108.091 1.38761 109.469 0.00976562 111.169 0.00976562H150.691C152.391 0.00976562 153.769 1.38761 153.769 3.08775Z" fill="#B28A67"/>
<path d="M153.769 25.8811H144.745C143.076 25.8811 141.724 27.234 141.724 28.9027C141.724 30.5714 143.076 31.9243 144.745 31.9243H153.769V25.8811Z" fill="#EFEDEF"/>
<path d="M153.769 52.0117H144.745C143.076 52.0117 141.724 53.3646 141.724 55.0333C141.724 56.702 143.076 58.0549 144.745 58.0549H153.769V52.0117Z" fill="#EFEDEF"/>
<path d="M153.769 78.1428H144.745C143.076 78.1428 141.724 79.4957 141.724 81.1644C141.724 82.8331 143.076 84.186 144.745 84.186H153.769V78.1428Z" fill="#EFEDEF"/>
<path d="M153.769 141.565H144.745C143.076 141.565 141.724 142.918 141.724 144.587C141.724 146.255 143.076 147.608 144.745 147.608H153.769V141.565Z" fill="#EFEDEF"/>
<path d="M153.769 167.696H144.745C143.076 167.696 141.724 169.049 141.724 170.718C141.724 172.387 143.076 173.739 144.745 173.739H153.769V167.696Z" fill="#EFEDEF"/>
<path d="M199.995 111.458L186.733 101.946L179.172 102.414V121.833L186.813 123.27L199.995 113.819C200.773 113.223 200.773 112.054 199.995 111.458Z" fill="#73553A"/>
<path d="M186.732 101.946L180.818 97.7078H168.917L159.268 103.198V124.823L168.917 127.569H180.818L186.813 123.27L186.732 101.946Z" fill="#FAE2C0"/>
<path d="M108.091 87.6357H153.769V137.641H108.091V87.6357Z" fill="#EFEDEF"/>
<path d="M75.5967 97.7078H168.917V127.569H75.5967V97.7078Z" fill="#5B5555"/>
</g>
<defs>
<clipPath id="clip0">
<rect width="200" height="200" fill="white" transform="translate(0.578125)"/>
</clipPath>
</defs>
</svg>
