<svg width="136" height="141" viewBox="0 0 136 141" fill="none" xmlns="http://www.w3.org/2000/svg">
<path d="M100.828 47.5302H126.621V136.132H18.7586V117.479H46.8966C47.5184 117.479 48.1149 117.234 48.5546 116.796C48.9943 116.359 49.2414 115.766 49.2414 115.148V94.1629H75.0345C75.6564 94.1629 76.2528 93.9173 76.6925 93.48C77.1323 93.0427 77.3793 92.4497 77.3793 91.8313V70.8465H98.4828C99.1046 70.8465 99.7011 70.6009 100.141 70.1636C100.581 69.7264 100.828 69.1333 100.828 68.5149V47.5302ZM121.931 0.897461H112.545C111.96 0.898076 111.397 1.11645 110.967 1.50952L8.47274 94.1629H4.68966C4.06777 94.1629 3.47135 94.4086 3.03161 94.8458C2.59187 95.2831 2.34483 95.8762 2.34483 96.4945C2.34483 97.1129 2.59187 97.706 3.03161 98.1433C3.47135 98.5805 4.06777 98.8262 4.68966 98.8262H9.37931C9.96264 98.8261 10.525 98.61 10.9568 98.22L21.1034 89.0476V112.816H25.7931V84.8364H25.762L63.3103 50.8933V89.4996H68V46.6541L110.207 8.49976V42.8669H114.897V5.56073H121.931C122.553 5.56073 123.149 5.31508 123.589 4.87781C124.029 4.44055 124.276 3.84749 124.276 3.2291C124.276 2.61071 124.029 2.01765 123.589 1.58038C123.149 1.14311 122.553 0.897461 121.931 0.897461ZM136 138.464C136 137.846 135.753 137.253 135.313 136.815C134.873 136.378 134.277 136.132 133.655 136.132H2.34483C1.72294 136.132 1.12653 136.378 0.686785 136.815C0.247044 137.253 0 137.846 0 138.464C0 139.082 0.247044 139.675 0.686785 140.113C1.12653 140.55 1.72294 140.796 2.34483 140.796H133.655C134.277 140.796 134.873 140.55 135.313 140.113C135.753 139.675 136 139.082 136 138.464Z" fill="white"/>
</svg>
