<svg width="136" height="141" viewBox="0 0 136 141" fill="none" xmlns="http://www.w3.org/2000/svg">
<path d="M22.939 102.833L12.3709 99.3299C11.4001 99.0058 10.3965 98.8425 9.37885 98.8425C5.33635 98.8425 1.76516 101.405 0.487227 105.218C-0.305327 107.583 -0.12712 110.113 0.993712 112.343C2.11454 114.572 4.03965 116.232 6.41732 117.023L16.4345 120.344C16.4321 120.176 16.4134 119.996 16.4134 119.831C16.4134 113.492 18.7723 107.494 22.939 102.833Z" fill="white"/>
<path d="M72.7598 119.35L39.8852 108.45C34.4171 109.544 30.4824 114.234 30.4824 119.831C30.4824 121.829 31.0264 123.767 32.0089 125.505L66.818 137.043C66.0723 135.341 65.655 133.464 65.655 131.491C65.655 126.295 68.5227 121.762 72.7598 119.35Z" fill="white"/>
<path d="M18.7582 96.5292L46.8962 105.857V98.7096C34.1497 96.2913 24.2193 92.2336 18.7582 87.1498V96.5292Z" fill="white"/>
<path d="M33.1508 106.219L27.8749 104.47C23.5721 108.439 21.103 113.956 21.103 119.831C21.103 120.498 21.157 121.204 21.239 121.934L26.2781 123.604C25.9826 122.373 25.7927 121.113 25.7927 119.831C25.7927 114.164 28.6675 109.148 33.1508 106.219Z" fill="white"/>
<path d="M49.2411 68.5262C52.7631 68.5262 56.2358 68.2184 59.5701 67.661C35.7654 64.9395 18.7583 56.0499 18.7583 45.2059C18.7583 43.1188 19.3937 41.1039 20.5826 39.1917C16.4697 42.2699 14.0686 45.9825 14.0686 49.87C14.0686 59.9817 30.1753 68.5262 49.2411 68.5262Z" fill="white"/>
<path d="M46.8962 73.1226C35.512 72.7518 25.5488 69.7249 18.7582 65.0352V68.5262C18.7582 74.5475 29.5233 81.0352 46.8962 84.5495V73.1226Z" fill="white"/>
<path d="M107.907 58.1907V59.4034C119.436 55.8167 126.621 50.4671 126.621 45.206C126.621 36.3816 105.435 26.5498 75.0343 26.5498C44.6335 26.5498 23.4479 36.3816 23.4479 45.206C23.4479 53.5686 42.4856 62.8175 70.3446 63.7666V61.4602C62.9185 61.269 25.7927 59.5596 25.7927 45.206C25.7927 29.3389 69.9952 28.8818 75.0343 28.8818C80.0733 28.8818 124.276 29.3389 124.276 45.206C124.276 49.1075 121.436 54.5271 107.907 58.1907Z" fill="white"/>
<path d="M79.1354 96.4522C75.9136 96.2493 73.149 94.4373 71.6225 91.8021C47.1729 91.3311 27.3872 85.8555 18.7582 77.824V77.8543C18.7582 86.6787 41.8689 96.5105 75.0342 96.5105C76.4083 96.5105 77.7754 96.4848 79.1354 96.4522Z" fill="white"/>
<path d="M107.874 92.8283C122.053 89.2836 131.31 83.4955 131.31 77.8543V77.7704C126.63 82.1149 118.585 85.7739 107.878 88.3065L107.874 92.8283Z" fill="white"/>
<path d="M51.5859 73.1342V85.3983C57.2815 86.3125 63.5868 86.8978 70.3446 87.0937V69.6222C64.6865 71.6814 58.332 72.9127 51.5859 73.1342Z" fill="white"/>
<path d="M107.902 64.2679L107.883 83.5001C122.058 79.9531 131.31 74.1674 131.31 68.5262V52.5168C129.721 53.5289 127.969 54.4641 126.018 55.292C122.011 58.8716 115.834 61.9592 107.902 64.2679Z" fill="white"/>
<path d="M105.517 21.8856C101.468 21.8856 97.5165 22.3357 93.8445 23.1776C115.879 26.3188 131.31 34.875 131.31 45.2059C131.31 45.7632 131.261 46.3159 131.174 46.8639C134.269 44.2707 136 41.2647 136 38.2098C136 29.3621 122.041 21.8856 105.517 21.8856Z" fill="white"/>
<path d="M89.1033 105.839V100.568C84.4957 100.969 79.7943 101.174 75.0343 101.174C66.6327 101.174 58.74 100.584 51.5859 99.5071V107.413L84.1815 118.219C87.748 119.404 90.6368 121.897 92.3157 125.239C92.9465 126.496 93.3779 127.813 93.6101 129.161H98.4827V115.169C93.3099 115.167 89.1033 110.983 89.1033 105.839Z" fill="white"/>
<path d="M107.862 105.839C107.862 109.276 105.963 112.252 103.172 113.87V129.159H106.263C120.074 129.159 131.31 117.984 131.31 104.248V87.0962C126.628 91.4431 118.58 95.0997 107.869 97.6323L107.862 105.839Z" fill="white"/>
<path d="M67.9998 19.5537C71.8849 19.5537 75.0343 16.4214 75.0343 12.5576C75.0343 8.69377 71.8849 5.56152 67.9998 5.56152C64.1148 5.56152 60.9653 8.69377 60.9653 12.5576C60.9653 16.4214 64.1148 19.5537 67.9998 19.5537Z" fill="white"/>
<path d="M44.5514 14.8896C48.4364 14.8896 51.5859 11.7574 51.5859 7.89354C51.5859 4.02971 48.4364 0.897461 44.5514 0.897461C40.6663 0.897461 37.5168 4.02971 37.5168 7.89354C37.5168 11.7574 40.6663 14.8896 44.5514 14.8896Z" fill="white"/>
<path d="M23.4479 26.5498C28.628 26.5498 32.8273 22.3734 32.8273 17.2217C32.8273 12.0699 28.628 7.89355 23.4479 7.89355C18.2679 7.89355 14.0686 12.0699 14.0686 17.2217C14.0686 22.3734 18.2679 26.5498 23.4479 26.5498Z" fill="white"/>
<path d="M93.7929 14.8896C97.678 14.8896 100.827 11.7574 100.827 7.89354C100.827 4.02971 97.678 0.897461 93.7929 0.897461C89.9079 0.897461 86.7584 4.02971 86.7584 7.89354C86.7584 11.7574 89.9079 14.8896 93.7929 14.8896Z" fill="white"/>
<path d="M103.172 58.1953C103.172 56.0778 104.621 54.2472 106.676 53.6898C114.657 51.528 119.586 48.4078 119.586 45.2059C119.586 38.7672 99.6387 33.5458 75.0343 33.5458C50.4299 33.5458 30.4824 38.7672 30.4824 45.2059C30.4824 51.2435 48.0171 56.2107 70.4877 56.8054C73.0177 56.873 75.0343 58.9439 75.0343 61.4601V87.1824C75.0343 89.7592 77.1329 91.8464 79.724 91.8464C82.315 91.8464 84.4137 89.7592 84.4137 87.1824V75.5222C84.4137 72.9453 86.5123 70.8582 89.1033 70.8582C91.6944 70.8582 93.793 72.9453 93.793 75.5222V105.839C93.793 108.415 95.8916 110.503 98.4827 110.503C101.074 110.503 103.172 108.415 103.172 105.839V58.1953ZM91.4482 56.866C87.5698 56.866 84.4137 53.7271 84.4137 49.87C84.4137 46.0128 87.5698 42.8739 91.4482 42.8739C95.3265 42.8739 98.4827 46.0128 98.4827 49.87C98.4827 53.7271 95.3265 56.866 91.4482 56.866Z" fill="white"/>
<path d="M79.7474 140.796C84.921 140.796 89.115 136.624 89.115 131.479C89.115 126.334 84.921 122.163 79.7474 122.163C74.5738 122.163 70.3798 126.334 70.3798 131.479C70.3798 136.624 74.5738 140.796 79.7474 140.796Z" fill="white"/>
</svg>
