<svg width="200" height="200" viewBox="0 0 200 200" fill="none" xmlns="http://www.w3.org/2000/svg">
<path d="M164.453 5.85938H176.172V52.7344H164.453V5.85938Z" fill="#463F3F"/>
<path d="M117.578 21.4844H129.297V87.8906H117.578V21.4844Z" fill="#463F3F"/>
<path d="M70.7031 52.7344H82.4219V123.047H70.7031V52.7344Z" fill="#5B5555"/>
<path d="M23.8281 83.9844H35.5469V158.203H23.8281V83.9844Z" fill="#5B5555"/>
<path d="M200 0V11.7188H148.648L94.1406 48.0586L9.5 104.484L3 94.7344L94.1406 33.9727L145.102 0H200Z" fill="#766E6E"/>
<path d="M200 0V11.7188H148.648L94.1406 48.0586V33.9727L145.102 0H200Z" fill="#5B5555"/>
<path d="M141.016 46.875V82.0312H94.1406V117.188H47.2656V152.344H0V200H200V46.875H141.016Z" fill="#B28A67"/>
<path d="M200 46.875V200H94.1406V82.0312H141.016V46.875H200Z" fill="#73553A"/>
</svg>
