<svg width="201" height="200" viewBox="0 0 201 200" fill="none" xmlns="http://www.w3.org/2000/svg">
<g clip-path="url(#clip0)">
<path d="M163.4 97.3054L158.32 56.0348L148.799 57.2067L148.803 57.2001L130.346 46.813C128.378 45.7052 126.118 45.2232 123.869 45.431L94.7257 48.1263C91.1433 48.4575 87.9421 50.5016 86.1347 53.6126L65.5942 88.9671C64.0774 91.5777 65.268 94.9257 68.0926 95.9925L68.9328 96.3097C70.5492 96.9202 72.2106 97.2737 73.8711 97.412L71.2684 99.6788L66.0614 104.215L51.2517 116.848C48.6153 119.145 48.3415 123.141 50.638 125.777L52.1403 127.498C55.0895 130.88 60.2227 131.231 63.611 128.281L69.2711 134.773C71.1113 136.886 73.8074 137.821 76.3977 137.502C77.9543 137.311 79.473 136.666 80.7414 135.556L86.3953 142.049C88.2421 144.168 90.9378 145.096 93.528 144.777C95.0847 144.586 96.6038 143.947 97.8726 142.838L100.945 145.493C103.895 148.881 109.034 149.231 112.423 146.281L116.599 142.637L151.715 115.289L151.753 115.254L165.607 115.24L163.4 97.3054Z" fill="#F29F5C"/>
<path d="M148.351 104.622L148.313 104.657L113.197 132.005L109.02 135.649C105.633 138.599 100.493 138.249 97.5432 134.861L94.4705 132.205C93.2018 133.314 91.6823 133.954 90.126 134.145C87.5358 134.464 84.8405 133.536 82.9932 131.417L77.3393 124.924C76.0706 126.033 74.5518 126.679 72.9956 126.87C70.4054 127.189 67.7093 126.255 65.8691 124.141L60.2089 117.649C57.3082 120.175 53.1316 120.273 50.1383 118.128C48.6031 120.443 48.7258 123.58 50.6394 125.777L52.1418 127.498C55.091 130.88 60.2242 131.231 63.6124 128.281L69.2726 134.773C71.1128 136.887 73.8089 137.821 76.3991 137.503C77.9557 137.311 79.4741 136.666 80.7428 135.557L86.3967 142.05C88.2436 144.168 90.9393 145.097 93.5295 144.778C95.0861 144.586 96.6053 143.947 97.874 142.838L100.947 145.494C103.897 148.882 109.036 149.232 112.424 146.282L116.601 142.638L151.716 115.29L151.754 115.255L165.609 115.241L164.076 102.79L148.351 104.622Z" fill="#D37D42"/>
<path d="M154.745 122.473L135.931 106.251L130.699 101.743L126.955 98.5188L110.859 84.6438L112.718 68.8197C113.347 63.4677 109.977 58.4572 104.784 57.0201L69.6959 47.3112C65.9835 46.2838 62.0596 48.0065 60.3034 51.435L55.8909 60.0482L36.9504 58.7627L32.0988 100.061L29.9902 118.008L48.4269 119.234L48.4652 119.269L86.9814 152.469L91.1787 156.09C94.583 159.022 99.72 158.643 102.651 155.238L108.268 148.721C109.543 149.822 111.066 150.453 112.624 150.637C115.216 150.941 117.906 149.997 119.741 147.869L125.359 141.345C126.634 142.447 128.156 143.084 129.714 143.267C132.306 143.571 134.997 142.622 136.825 140.498L142.449 133.974C145.853 136.906 150.985 136.526 153.915 133.128L155.408 131.398C157.69 128.75 157.394 124.755 154.745 122.473Z" fill="#F9C295"/>
<path d="M154.744 122.474L149.014 117.532C150.876 120.002 150.838 123.516 148.736 125.956L147.151 127.791C144.04 131.399 138.593 131.802 134.979 128.69L129.009 135.615C127.068 137.869 124.211 138.877 121.46 138.554C119.806 138.36 118.19 137.684 116.837 136.514L110.873 143.44C108.925 145.699 106.069 146.701 103.318 146.378C101.664 146.184 100.047 145.514 98.6943 144.344L92.731 151.263C91.6076 152.568 90.1768 153.448 88.6396 153.901L91.1783 156.091C94.5826 159.022 99.7197 158.643 102.651 155.239L108.268 148.721C109.543 149.823 111.066 150.454 112.624 150.637C115.215 150.941 117.906 149.998 119.741 147.869L125.359 141.345C126.634 142.447 128.156 143.084 129.714 143.267C132.305 143.572 134.996 142.622 136.825 140.499L142.449 133.975C145.853 136.906 150.984 136.527 153.915 133.128L155.408 131.399C157.689 128.75 157.393 124.756 154.744 122.474Z" fill="#E59F6A"/>
<path d="M144.353 131.803L134.044 122.914C132.819 121.858 130.969 121.994 129.912 123.22C128.855 124.445 128.993 126.295 130.218 127.352L140.509 136.225L142.449 133.975C143.223 134.642 144.089 135.128 144.996 135.456C145.665 134.265 145.428 132.729 144.353 131.803Z" fill="#E59F6A"/>
<path d="M127.87 142.823C128.576 141.626 128.35 140.06 127.26 139.12L117.999 131.135C116.774 130.079 114.924 130.216 113.867 131.441C112.81 132.666 112.948 134.516 114.173 135.573L123.434 143.558C123.438 143.561 123.442 143.564 123.446 143.567L125.359 141.345C126.122 142.005 126.975 142.494 127.87 142.823Z" fill="#E59F6A"/>
<path d="M49.3879 119.193L47.1562 122.14C44.7262 125.349 45.3574 129.92 48.5664 132.351C51.7753 134.781 56.3468 134.149 58.7773 130.94L61.0089 127.994C63.439 124.785 62.8077 120.213 59.5988 117.783C56.3898 115.353 51.8179 115.984 49.3879 119.193Z" fill="#F29F5C"/>
<path d="M62.98 125.391L58.7773 130.94C56.3473 134.149 56.9785 138.721 60.1875 141.151C63.3964 143.581 67.9679 142.95 70.3984 139.741L74.6011 134.191C77.0312 130.982 76.3999 126.411 73.1909 123.98C69.9816 121.55 65.4101 122.182 62.98 125.391Z" fill="#F29F5C"/>
<path d="M76.1261 132.178L70.3984 139.741C67.9683 142.95 68.5996 147.522 71.8086 149.952C75.0175 152.382 79.589 151.751 82.0195 148.542L87.7472 140.979C90.1772 137.77 89.546 133.198 86.337 130.768C83.128 128.337 78.5566 128.969 76.1261 132.178Z" fill="#F29F5C"/>
<path d="M88.0787 140.54L82.0185 148.541C79.5885 151.75 80.2197 156.322 83.4287 158.752C86.6377 161.182 91.2091 160.551 93.6396 157.342L99.6997 149.34C102.13 146.131 101.499 141.56 98.2896 139.129C95.0802 136.699 90.5087 137.331 88.0787 140.54Z" fill="#F29F5C"/>
<path d="M148.804 57.2001L130.347 46.813C128.378 45.7052 126.119 45.2232 123.869 45.431L94.7263 48.1263C91.1439 48.4575 87.9427 50.5016 86.1353 53.6126L65.5948 88.9671C64.078 91.5781 65.2686 94.9257 68.0932 95.9925L68.9334 96.3097C76.4627 99.1534 84.9658 96.7335 89.8693 90.3519L97.7392 80.1097C97.7392 80.1097 116.657 102.013 137.485 76.434" fill="#F29F5C"/>
<path d="M199.996 120.759L190.343 42.3414C190.248 41.5704 189.851 40.8684 189.238 40.3903C188.626 39.9122 187.849 39.6973 187.077 39.7918L164.504 42.5707C158.641 43.2926 154.459 48.6496 155.181 54.5121L162.932 117.481C163.599 122.901 168.229 126.885 173.557 126.885C173.992 126.885 174.432 126.859 174.874 126.804L197.447 124.025C199.052 123.827 200.194 122.365 199.996 120.759Z" fill="#73553A"/>
<path d="M199.996 120.759L198.936 112.152C198.456 112.857 197.689 113.361 196.775 113.473L173.113 116.386C172.649 116.443 172.188 116.471 171.733 116.471C167.748 116.471 164.138 114.345 162.142 111.064L162.931 117.48C163.599 122.901 168.228 126.885 173.556 126.885C173.991 126.885 174.431 126.858 174.873 126.804L197.446 124.025C199.052 123.827 200.194 122.365 199.996 120.759Z" fill="#B28A67"/>
<path d="M35.5332 42.5704L12.9599 39.7915C12.1876 39.6966 11.4115 39.9118 10.799 40.3899C10.1865 40.8681 9.78919 41.57 9.69427 42.3411L0.0407951 120.76C-0.15686 122.365 0.984932 123.827 2.59039 124.025L25.1637 126.804C25.6059 126.858 26.0454 126.885 26.4801 126.885C31.8082 126.885 36.4379 122.901 37.1051 117.48L44.8566 54.5117C45.5785 48.6493 41.3961 43.2923 35.5332 42.5704Z" fill="#F49A30"/>
<path d="M0.0408011 120.759L1.10056 112.152C1.58103 112.857 2.34821 113.361 3.26149 113.473L26.9243 116.386C27.3876 116.443 27.8489 116.471 28.3044 116.471C32.2887 116.471 35.8985 114.345 37.8953 111.064L37.1055 117.48C36.4383 122.901 31.809 126.885 26.4805 126.885C26.0462 126.885 25.6059 126.858 25.1641 126.804L2.59079 124.025C0.984547 123.827 -0.156854 122.365 0.0408011 120.759Z" fill="#FFDD55"/>
<path d="M181.268 113.867C184.395 113.867 186.931 111.331 186.931 108.203C186.931 105.076 184.395 102.54 181.268 102.54C178.14 102.54 175.604 105.076 175.604 108.203C175.604 111.331 178.14 113.867 181.268 113.867Z" fill="#EBEEF2"/>
<path d="M18.4523 113.867C21.5801 113.867 24.1156 111.331 24.1156 108.203C24.1156 105.076 21.5801 102.54 18.4523 102.54C15.3246 102.54 12.7891 105.076 12.7891 108.203C12.7891 111.331 15.3246 113.867 18.4523 113.867Z" fill="#EBEEF2"/>
</g>
<defs>
<clipPath id="clip0">
<rect width="200" height="200" fill="white" transform="translate(0.0185547)"/>
</clipPath>
</defs>
</svg>
