<svg width="120" height="121" viewBox="0 0 120 121" fill="none" xmlns="http://www.w3.org/2000/svg">
<g clip-path="url(#clip0)">
<path d="M63.5223 0.818115C55.7666 0.818115 49.2255 7.35928 49.2255 15.115C49.2255 22.8707 55.7666 29.4118 63.5223 29.4118C71.278 29.4118 77.5848 22.8707 77.5848 15.115C77.5848 7.35928 71.278 0.818115 63.5223 0.818115Z" fill="#F49A30"/>
<path d="M79.1298 29.4119C75.2661 33.696 69.7323 36.4431 63.5223 36.4431C57.3123 36.4431 51.5441 33.696 47.6805 29.4119C44.3073 33.1523 42.1942 38.0523 42.1942 43.4743V46.99C42.1942 48.9332 43.7666 50.5056 45.7098 50.5056H81.1004C83.0436 50.5056 84.616 48.9332 84.616 46.99V43.4743C84.616 38.0523 82.5029 33.1523 79.1298 29.4119Z" fill="#F49A30"/>
<path d="M33.9717 108.725L16.0558 72.8058C14.3259 69.3373 10.1156 67.9229 6.64289 69.6434L1.96032 71.963C0.216812 72.8276 -0.49264 74.9466 0.377593 76.6871L21.4713 118.875C22.3387 120.614 24.4488 121.307 26.1782 120.454L30.8006 118.164C34.2869 116.437 35.7079 112.207 33.9717 108.725Z" fill="#F49A30"/>
<path d="M117.124 58.8727C114.241 56.7633 110.233 57.1852 107.843 59.7868L88.6241 83.4117C87.2881 84.818 84.7569 85.6617 83.421 85.6617H67.0379C65.069 85.6617 63.5223 84.1151 63.5223 82.1461C63.5223 80.1771 65.069 78.6305 67.0379 78.6305C71.7465 78.6305 76.9595 78.6305 81.1004 78.6305C84.9676 78.6305 88.1316 75.4664 88.1316 71.5992C88.1316 67.7321 84.9676 64.568 81.1004 64.568C64.5897 64.568 80.3387 64.568 62.6786 64.568C60.9264 64.568 60.0526 63.4568 58.6708 62.2475C53.2312 57.3526 45.089 54.9943 36.846 56.9049C32.2692 57.9657 29.1827 59.8147 26.0524 62.2939L25.9481 62.2093L20.8631 66.6844L40.8468 106.755H46.7643H81.1004C87.7098 106.755 94.0381 103.591 97.9756 98.318L118.6 68.7868C120.921 65.6928 120.288 61.1932 117.124 58.8727Z" fill="#F49A30"/>
</g>
<defs>
<clipPath id="clip0">
<rect y="0.818115" width="120" height="120" fill="white"/>
</clipPath>
</defs>
</svg>
