<svg width="150" height="151" viewBox="0 0 150 151" fill="none" xmlns="http://www.w3.org/2000/svg">
<path d="M74.9957 82.5359L62.3475 95.1749L94.561 127.365L107.209 114.726L74.9957 82.5359Z" fill="white"/>
<path d="M114.13 121.638L101.482 134.277L117.786 150.569H143.083L114.13 121.638Z" fill="white"/>
<path d="M55.4332 62.9855L23.2197 95.1755L35.8679 107.815L68.0814 75.6245L55.4332 62.9855Z" fill="white"/>
<path d="M55.4344 23.8818L42.7862 36.5209L74.9997 68.7109L87.648 56.0719L55.4344 23.8818Z" fill="white"/>
<path d="M121.047 36.5222L133.696 49.1616L150 32.8689V7.59033L121.047 36.5222Z" fill="white"/>
<path d="M55.4347 102.087L6.91669 150.57H32.2137L68.0833 114.726L55.4347 102.087Z" fill="white"/>
<path d="M32.2137 0.678711H6.91669L35.8696 29.6106L48.5182 16.9711L32.2137 0.678711Z" fill="white"/>
<path d="M117.786 0.678711L81.9167 36.5223L94.5653 49.1617L143.083 0.678711H117.786Z" fill="white"/>
<path d="M46.0471 0.678711L75 29.6106L103.953 0.678711H46.0471Z" fill="white"/>
<path d="M75 121.638L46.0471 150.569H103.953L75 121.638Z" fill="white"/>
<path d="M114.129 43.432L81.9152 75.6221L94.5635 88.2611L126.777 56.071L114.129 43.432Z" fill="white"/>
<path d="M121.047 75.6241L150 104.556V46.6923L121.047 75.6241Z" fill="white"/>
<path d="M114.13 82.5358L101.482 95.1752L150 143.658V118.379L114.13 82.5358Z" fill="white"/>
<path d="M-6.10352e-05 7.59033V32.8689L35.8696 68.7125L48.5182 56.073L-6.10352e-05 7.59033Z" fill="white"/>
<path d="M16.3042 102.087L-6.10352e-05 118.379V143.658L28.9529 114.726L16.3042 102.087Z" fill="white"/>
<path d="M-6.10352e-05 46.6923V104.556L28.9529 75.6241L-6.10352e-05 46.6923Z" fill="white"/>
</svg>
