<svg width="40" height="40" viewBox="0 0 40 40" fill="none" xmlns="http://www.w3.org/2000/svg">
<path d="M19.9722 7.75665C16.4911 7.75665 13.6587 10.589 13.6587 14.0701C13.6587 17.5516 16.4911 20.3839 19.9722 20.3839C23.4537 20.3839 26.286 17.5516 26.286 14.0701C26.286 10.589 23.4537 7.75665 19.9722 7.75665Z" fill="#F49A30"/>
<path d="M19.9722 0C11.8887 0 5.3125 6.57623 5.3125 14.6597C5.3125 18.3731 7.65228 23.6197 12.2672 30.2539C15.6403 35.1035 18.9578 38.8562 19.0976 39.0137L19.9722 40L20.8472 39.0137C20.9866 38.8562 24.3042 35.1035 27.6776 30.2539C32.2922 23.6197 34.6323 18.3731 34.6323 14.6597C34.6323 6.57623 28.0557 0 19.9722 0ZM19.9722 22.7225C15.2014 22.7225 11.3202 18.8409 11.3202 14.0701C11.3202 9.29932 15.2014 5.41809 19.9722 5.41809C24.7433 5.41809 28.6246 9.29932 28.6246 14.0701C28.6246 18.8409 24.7433 22.7225 19.9722 22.7225Z" fill="#F49A30"/>
</svg>
