<svg width="70" height="70" viewBox="0 0 70 70" fill="none" xmlns="http://www.w3.org/2000/svg">
<g clip-path="url(#clip0)">
<path fill-rule="evenodd" clip-rule="evenodd" d="M-0.0546822 27.037C-0.190608 14.6136 -0.24587 9.56277 4.37501 4.76303C9.22457 -0.265337 14.5205 -0.221114 33.0658 -0.0662585C36.9059 -0.0341927 41.3142 0.00261676 46.4042 0.000115044C54.6146 0.014429 55.081 0.0821309 56.6372 0.308024L56.7263 0.320949C63.84 1.3447 69.2388 6.39928 69.9271 15.1697C70.0204 16.3422 70.0204 53.6493 69.93 54.7985C69.2825 63.0322 64.5458 67.7543 58.7242 69.2564C54.3638 70.3851 15.6771 70.3851 11.3108 69.2622C-0.710098 66.1554 -0.421827 54.374 -0.10437 41.3997C-0.0525678 39.2826 1.14739e-05 37.1337 1.14739e-05 34.9855C1.14739e-05 32.0359 -0.028798 29.4028 -0.0546822 27.037ZM32.4393 9.14354C33.2836 9.14963 34.1345 9.15578 34.9888 9.1558C36.0049 9.15578 36.9875 9.14914 37.9383 9.14272C46.1949 9.08698 52.0446 9.04748 56.49 13.4929C60.9182 17.9184 60.8867 23.6722 60.8401 32.1992C60.8351 33.1023 60.83 34.0364 60.83 35.0033C60.83 35.8976 60.8332 36.7587 60.8364 37.5888C60.8597 43.8196 60.8765 48.3026 59.4738 51.9316C55.9263 61.0331 46.9106 60.9511 37.6552 60.867C36.7669 60.8589 35.8764 60.8508 34.9884 60.8508C34.1377 60.8508 33.2895 60.857 32.4468 60.8631C22.8771 60.9329 14.0282 60.9975 10.5059 51.9316C9.10579 48.3273 9.12442 42.9677 9.14469 37.135C9.14714 36.4306 9.14961 35.7193 9.14961 35.0033C9.14961 34.1219 9.14649 33.2714 9.14347 32.4503C9.12059 26.217 9.1039 21.6697 10.5059 18.0721C14.0366 9.01066 22.8184 9.07407 32.4393 9.14354ZM36.8342 13.7861C35.5312 13.7984 34.1474 13.8114 32.6784 13.8137V13.8079C15.4467 13.8254 13.8134 14.1521 13.8134 34.9916C13.8134 55.592 14.4054 56.1812 34.9971 56.1812C36.0362 56.1812 37.0575 56.1924 38.0558 56.2034C47.908 56.3115 55.5287 56.3952 56.0292 45.4391C57.4777 13.5917 55.1238 13.6138 36.8342 13.7861ZM45.6896 21.2045C45.6896 19.4925 47.0779 18.1041 48.79 18.1041C50.5021 18.1041 51.8904 19.4925 51.8904 21.2045C51.8904 22.9166 50.5021 24.305 48.79 24.305C47.0779 24.305 45.6896 22.9166 45.6896 21.2045ZM21.7234 35.0033C21.7234 27.6737 27.6646 21.7295 34.9942 21.7295C42.3238 21.7295 48.2621 27.6737 48.2621 35.0033C48.2621 42.3329 42.3238 48.2741 34.9942 48.2741C27.6646 48.2741 21.7234 42.3329 21.7234 35.0033ZM34.9942 26.3875C46.3838 26.3875 46.3984 43.6191 34.9942 43.6191C23.6075 43.6191 23.59 26.3875 34.9942 26.3875Z" fill="url(#paint0_linear)"/>
</g>
<defs>
<linearGradient id="paint0_linear" x1="4.50924" y1="65.5292" x2="69.5669" y2="9.22258" gradientUnits="userSpaceOnUse">
<stop stop-color="#FFDD55"/>
<stop offset="0.5" stop-color="#FF543E"/>
<stop offset="1" stop-color="#C837AB"/>
</linearGradient>
<clipPath id="clip0">
<rect width="70" height="70" fill="white"/>
</clipPath>
</defs>
</svg>
