<svg width="31" height="31" viewBox="0 0 31 31" fill="none" xmlns="http://www.w3.org/2000/svg">
<g clip-path="url(#clip0)">
<path fill-rule="evenodd" clip-rule="evenodd" d="M0.58948 12.518C0.531226 7.17359 0.507542 5.00077 2.48792 2.93598C4.5663 0.772824 6.836 0.791848 14.784 0.858466C16.4298 0.87226 18.319 0.888095 20.5004 0.887019C24.0192 0.893177 24.2191 0.922301 24.886 1.01948L24.9242 1.02504C27.9729 1.46544 30.2867 3.63987 30.5817 7.41282C30.6217 7.91721 30.6217 23.9663 30.5829 24.4607C30.3054 28.0028 28.2754 30.0342 25.7804 30.6803C23.9117 31.1659 7.33167 31.1659 5.46042 30.6828C0.308587 29.3463 0.432132 24.2781 0.568185 18.6967C0.590386 17.7859 0.61292 16.8615 0.61292 15.9374C0.61292 14.6685 0.600573 13.5357 0.58948 12.518ZM14.5155 4.82017C14.8773 4.82279 15.242 4.82544 15.6081 4.82545C16.0436 4.82544 16.4647 4.82258 16.8722 4.81982C20.4107 4.79584 22.9178 4.77885 24.8229 6.69121C26.7207 8.59502 26.7072 11.0703 26.6872 14.7385C26.6851 15.127 26.6829 15.5288 26.6829 15.9448C26.6829 16.3295 26.6843 16.6999 26.6856 17.057C26.6956 19.7374 26.7028 21.666 26.1017 23.2271C24.5813 27.1425 20.7175 27.1072 16.7509 27.071C16.3702 27.0676 15.9885 27.0641 15.6079 27.0641C15.2434 27.0641 14.8798 27.0667 14.5187 27.0694C10.4174 27.0994 6.625 27.1272 5.11543 23.2271C4.5154 21.6766 4.52338 19.371 4.53207 16.8618C4.53312 16.5588 4.53418 16.2528 4.53418 15.9448C4.53418 15.5656 4.53284 15.1997 4.53155 14.8465C4.52174 12.165 4.51458 10.2088 5.11543 8.66112C6.6286 4.76301 10.3923 4.79029 14.5155 4.82017ZM16.399 6.81735C15.8406 6.82262 15.2475 6.82823 14.6179 6.82923V6.82672C7.23293 6.83425 6.53293 6.97478 6.53293 15.9397C6.53293 24.8018 6.78668 25.0553 15.6117 25.0553C16.057 25.0553 16.4947 25.0601 16.9226 25.0648C21.1449 25.1113 24.4109 25.1473 24.6254 20.4341C25.2462 6.7337 24.2374 6.74324 16.399 6.81735ZM20.1942 10.0087C20.1942 9.27217 20.7892 8.67492 21.5229 8.67492C22.2567 8.67492 22.8517 9.27217 22.8517 10.0087C22.8517 10.7452 22.2567 11.3425 21.5229 11.3425C20.7892 11.3425 20.1942 10.7452 20.1942 10.0087ZM9.92293 15.9448C9.92293 12.7917 12.4692 10.2345 15.6104 10.2345C18.7517 10.2345 21.2967 12.7917 21.2967 15.9448C21.2967 19.0979 18.7517 21.6537 15.6104 21.6537C12.4692 21.6537 9.92293 19.0979 9.92293 15.9448ZM15.6104 12.2383C20.4917 12.2383 20.4979 19.6512 15.6104 19.6512C10.7304 19.6512 10.7229 12.2383 15.6104 12.2383Z" fill="url(#paint0_linear)"/>
</g>
<defs>
<linearGradient id="paint0_linear" x1="2.54545" y1="29.0769" x2="30.5172" y2="4.95873" gradientUnits="userSpaceOnUse">
<stop stop-color="#F49A30"/>
<stop offset="0.5" stop-color="#F49A30"/>
<stop offset="1" stop-color="#F49A30"/>
</linearGradient>
<clipPath id="clip0">
<rect width="30" height="30.1133" fill="white" transform="translate(0.612915 0.886719)"/>
</clipPath>
</defs>
</svg>
