<svg width="100" height="101" viewBox="0 0 100 101" fill="none" xmlns="http://www.w3.org/2000/svg">
<g clip-path="url(#clip0)">
<path d="M13.186 18.6885C13.4985 18.7669 13.7845 18.929 14.0124 19.1566L39.474 44.6187L44.0813 40.0119L18.6192 14.5498C18.3909 14.3217 18.2295 14.0348 18.1506 13.7214L16.5481 7.3333L5.92493 1.26001L0.722839 6.46187L6.79796 17.0924L13.186 18.6885Z" fill="#F49A30"/>
<path d="M35.8273 76.768L76.2308 36.3638C76.6734 35.9207 77.3156 35.7431 77.9227 35.8942C83.2423 37.2576 88.8927 36.0762 93.2222 32.6984C97.5524 29.3203 100.071 24.1255 100.042 18.6343C100.042 18.2998 100.032 17.9629 100.011 17.6229L90.6132 27.0192C90.137 27.4958 89.4308 27.6629 88.7907 27.4494L78.1024 23.8862C77.5702 23.7099 77.1528 23.2925 76.9752 22.7608L73.4128 12.0722C73.1991 11.433 73.3658 10.7267 73.8431 10.2496L83.2403 0.852615C77.5814 0.500567 72.0952 2.87804 68.4807 7.24618C64.8668 11.6152 63.5608 17.4496 64.9664 22.9418C65.1187 23.5499 64.9413 24.1918 64.4983 24.6346L24.0954 65.0361C23.6522 65.4757 23.0107 65.654 22.4031 65.5051C20.9965 65.144 19.5499 64.9567 18.0969 64.951C10.4248 64.9005 3.56965 69.737 1.04359 76.9831C-1.4811 84.2284 0.88334 92.2782 6.92577 97.0071C12.9682 101.736 21.3502 102.098 27.7766 97.905C34.2036 93.7127 37.2509 85.8963 35.3569 78.4598C35.2062 77.8529 35.3843 77.2098 35.8273 76.768ZM22.433 89.8911H13.7621L9.48566 82.7658L13.7621 75.6393H22.433L26.7086 82.7658L22.433 89.8911ZM29.308 69.0359L68.4988 29.8447L71.0173 32.3637L31.8266 71.5549L29.308 69.0359Z" fill="#F49A30"/>
<path d="M85.4353 99.8892C89.4032 101.381 93.8767 100.414 96.8744 97.4161C99.8723 94.4178 100.84 89.9435 99.3474 85.9766L85.4353 99.8892Z" fill="#F49A30"/>
<path d="M96.8746 82.1173L76.8666 62.1013C74.6596 63.9564 71.4007 63.8154 69.3608 61.7781C67.3208 59.7412 67.177 56.4832 69.0289 54.274L66.1954 51.437L50.9002 66.7328L53.7509 69.5832C55.9578 67.7281 59.2172 67.8687 61.2559 69.9053C63.2958 71.9426 63.4405 75.2011 61.5883 77.4106L81.5794 97.4121C81.7975 97.6302 82.0277 97.8323 82.2602 98.0289L97.4918 82.7973C97.2957 82.5644 97.0927 82.3351 96.8746 82.1173ZM86.3127 89.3685L68.4988 71.5547L71.0173 69.0357L88.8316 86.8505L86.3127 89.3685Z" fill="#F49A30"/>
</g>
<defs>
<clipPath id="clip0">
<rect y="0.818115" width="100" height="100" fill="white"/>
</clipPath>
</defs>
</svg>
