<svg width="150" height="151" viewBox="0 0 150 151" fill="none" xmlns="http://www.w3.org/2000/svg">
<path d="M23.4375 0.897461H0V40.7122H23.4375V0.897461ZM11.7188 24.3179V12.6077H16.4062V24.3179H11.7188Z" fill="white"/>
<path d="M28.125 0.897461V40.7122H51.5625V0.897461H28.125ZM39.8438 24.3179H35.1562V12.6077H39.8438V24.3179Z" fill="white"/>
<path d="M121.875 0.897461H98.4375V40.7122H121.875V0.897461ZM110.156 24.3179V12.6077H114.844V24.3179H110.156Z" fill="white"/>
<path d="M126.562 0.897461V40.7122H150V0.897461H126.562ZM140.625 24.3179H135.938V12.6077H140.625V24.3179Z" fill="white"/>
<path d="M58.5938 0.897461H91.4062V36.0281H58.5938V0.897461Z" fill="white"/>
<path d="M97.2656 45.3963L93.75 40.7122H56.25L52.7344 45.3963H42.1875V50.0804H49.2188H100.781H107.812V45.3963H97.2656Z" fill="white"/>
<path d="M98.4375 99.2634H51.5625V129.71H98.4375V99.2634ZM89.0625 108.632H63.2812V103.947H89.0625V108.632Z" fill="white"/>
<path d="M0 73.5009H35.1562V89.8952H0V73.5009Z" fill="white"/>
<path d="M114.844 73.5009H150V89.8952H114.844V73.5009Z" fill="white"/>
<path d="M35.1562 94.5793H0V146.104H9.375V150.788H14.0625V146.104H35.1562V94.5793ZM25.7812 115.658V103.947H30.4688V115.658H25.7812Z" fill="white"/>
<path d="M114.844 94.5793V146.104H138.577V150.788H143.264V146.104H150V94.5793H114.844ZM124.219 115.658H119.531V103.947H124.219V115.658Z" fill="white"/>
<path d="M110.156 73.5009H39.8438V146.104H72.3656V150.788H77.0531V146.104H110.156V73.5009ZM103.125 134.394H46.875V94.5793H103.125V134.394ZM46.875 87.5531V82.869H103.125V87.5531H46.875Z" fill="white"/>
</svg>
