<svg width="100" height="101" viewBox="0 0 100 101" fill="none" xmlns="http://www.w3.org/2000/svg">
<g clip-path="url(#clip0)">
<path d="M38.3932 95.4116C41.1818 98.7145 45.3488 100.818 50 100.818C54.6512 100.818 58.8182 98.7145 61.6068 95.4116H38.3932Z" fill="#F49A30"/>
<path d="M29.9195 74.7427V85.6286C29.9195 87.4294 31.3795 88.8896 33.1805 88.8896H66.8195C68.6203 88.8896 70.0805 87.4296 70.0805 85.6286V74.7427H29.9195Z" fill="#F49A30"/>
<path d="M52.2477 54.6243H47.7522V68.2221H52.2477V54.6243Z" fill="#F49A30"/>
<path d="M39.6561 44.9543C38.7883 44.9543 38.0822 45.6602 38.0822 46.528C38.0822 47.3958 38.7883 48.1018 39.6561 48.1018H41.2297V46.528C41.2297 45.6602 40.5238 44.9543 39.6561 44.9543Z" fill="#F49A30"/>
<path d="M60.3426 44.9546C59.4748 44.9546 58.7688 45.6604 58.7688 46.5282V48.102H60.3426C61.2104 48.102 61.9162 47.396 61.9162 46.5282C61.9162 45.6604 61.2104 44.9546 60.3426 44.9546Z" fill="#F49A30"/>
<path d="M50 0.818115C31.51 0.818115 16.4674 15.8607 16.4674 34.3507C16.4674 44.9716 21.4643 54.8829 29.9195 61.2058V68.2212H41.2297V54.6238H39.6561C35.1922 54.6238 31.5604 50.9921 31.5604 46.5281C31.5604 42.0642 35.1922 38.4326 39.6561 38.4326C44.1199 38.4326 47.7516 42.064 47.7516 46.5281V48.1019H52.2471V46.5281C52.2471 42.0642 55.8787 38.4326 60.3428 38.4326C64.8069 38.4326 68.4383 42.064 68.4383 46.5281C68.4383 50.9921 64.8069 54.6238 60.3428 54.6238H58.769V68.2212H70.0807V61.2058C78.536 54.8829 83.5329 44.9716 83.5329 34.3507C83.5327 15.8607 68.4901 0.818115 50 0.818115Z" fill="#F49A30"/>
</g>
<defs>
<clipPath id="clip0">
<rect y="0.818115" width="100" height="100" fill="white"/>
</clipPath>
</defs>
</svg>
