<svg width="151" height="151" viewBox="0 0 151 151" fill="none" xmlns="http://www.w3.org/2000/svg">
<path d="M75.4791 0.678711C34.0577 0.678711 0.479126 34.2329 0.479126 75.6242C0.479126 117.015 34.0577 150.57 75.4791 150.57C116.901 150.57 150.479 117.015 150.479 75.6242C150.479 34.2329 116.901 0.678711 75.4791 0.678711ZM54.3845 101.387C50.246 101.387 48.1088 96.3495 51.0701 93.3906L68.8492 75.6242L51.0701 57.8577C49.2394 56.0286 49.2394 53.0627 51.0701 51.2335C52.9006 49.4041 55.8687 49.4041 57.6991 51.2335L78.7929 72.3119C80.6237 74.1411 80.6237 77.107 78.7929 78.9361L57.6991 100.015C56.7839 100.929 55.5842 101.387 54.3845 101.387ZM104.574 78.9364L83.4804 100.015C82.5652 100.93 81.3654 101.387 80.166 101.387C76.0276 101.387 73.8904 96.3498 76.8517 93.3909L94.6305 75.6242L76.8514 57.8577C75.0206 56.0286 75.0206 53.0627 76.8514 51.2335C78.6819 49.4041 81.6499 49.4041 83.4804 51.2335L104.574 72.3119C106.405 74.1414 106.405 77.1073 104.574 78.9364Z" fill="white"/>
</svg>
