<svg width="40" height="40" viewBox="0 0 40 40" fill="none" xmlns="http://www.w3.org/2000/svg">
<g clip-path="url(#clip0)">
<path d="M39.2226 31.8064L34.7882 28.8499L30.8462 26.2223C30.0854 25.7162 29.063 25.8821 28.5014 26.603L26.0621 29.7388C25.5381 30.4193 24.5956 30.6149 23.8442 30.1988C22.189 29.2782 20.2318 28.4113 15.9132 24.0872C11.5947 19.7631 10.7223 17.8114 9.80159 16.1563C9.38557 15.4049 9.58112 14.4623 10.2616 13.9384L13.3974 11.4991C14.1183 10.9376 14.2843 9.91518 13.7781 9.15433L11.2313 5.33367L8.19403 0.777789C7.67708 0.00233008 6.64225 -0.23048 5.84304 0.248811L2.34027 2.35019C1.39364 2.90792 0.697786 3.80853 0.396852 4.86532C-0.561028 8.3577 -0.75415 16.0617 11.5926 28.4085C23.9393 40.7552 31.6427 40.5615 35.135 39.6035C36.1918 39.3026 37.0924 38.6068 37.6502 37.6601L39.7515 34.1574C40.2309 33.3581 39.9981 32.3233 39.2226 31.8064Z" fill="white"/>
<path d="M22.7583 6.20672C29.2302 6.21391 34.4751 11.4587 34.4823 17.9307C34.4823 18.3116 34.791 18.6204 35.1719 18.6204C35.5528 18.6204 35.8616 18.3117 35.8616 17.9307C35.8537 10.6973 29.9918 4.83541 22.7583 4.82744C22.3775 4.82744 22.0687 5.13618 22.0687 5.51712C22.0686 5.89789 22.3773 6.20672 22.7583 6.20672Z" fill="white"/>
<path d="M22.7583 10.3446C26.946 10.3495 30.3394 13.743 30.3444 17.9306C30.3444 18.3115 30.6531 18.6203 31.034 18.6203C31.4149 18.6203 31.7237 18.3116 31.7237 17.9306C31.718 12.9816 27.7074 8.9709 22.7583 8.96519C22.3774 8.96519 22.0686 9.27394 22.0686 9.65487C22.0686 10.0358 22.3774 10.3446 22.7583 10.3446Z" fill="white"/>
<path d="M22.7583 14.4825C24.6618 14.4847 26.2042 16.0272 26.2065 17.9307C26.2065 18.3116 26.5153 18.6204 26.8962 18.6204C27.277 18.6204 27.5859 18.3116 27.5859 17.9307C27.5828 15.2658 25.4232 13.1062 22.7583 13.1032C22.3775 13.1032 22.0687 13.4119 22.0687 13.7929C22.0686 14.1737 22.3773 14.4825 22.7583 14.4825Z" fill="white"/>
</g>
<defs>
<clipPath id="clip0">
<rect width="40" height="40" fill="white"/>
</clipPath>
</defs>
</svg>
