<svg width="41" height="41" viewBox="0 0 41 41" fill="none" xmlns="http://www.w3.org/2000/svg">
<g clip-path="url(#clip0)">
<path d="M39.2913 32.6463L34.8569 29.6897L30.9148 27.0622C30.1541 26.556 29.1317 26.722 28.57 27.4429L26.1308 30.5787C25.6068 31.2592 24.6642 31.4547 23.9128 31.0387C22.2577 30.118 20.3004 29.2511 15.9819 24.9271C11.6634 20.603 10.7909 18.6513 9.87025 16.9961C9.45424 16.2447 9.64978 15.3022 10.3302 14.7783L13.4661 12.339C14.1869 11.7774 14.3529 10.755 13.8468 9.99419L11.2999 6.17353L8.26269 1.61765C7.74574 0.842189 6.71091 0.609379 5.9117 1.08867L2.40893 3.19005C1.4623 3.74778 0.76645 4.64839 0.465516 5.70518C-0.492363 9.19756 -0.685486 16.9016 11.6612 29.2483C24.008 41.5951 31.7113 41.4013 35.2037 40.4434C36.2605 40.1425 37.1611 39.4466 37.7188 38.4999L39.8202 34.9972C40.2996 34.198 40.0668 33.1632 39.2913 32.6463Z" fill="#F49A30"/>
<path d="M22.8269 7.04652C29.2989 7.0537 34.5437 12.2985 34.5509 18.7705C34.5509 19.1514 34.8597 19.4602 35.2406 19.4602C35.6215 19.4602 35.9303 19.1515 35.9303 18.7705C35.9223 11.5371 30.0604 5.6752 22.827 5.66724C22.4461 5.66724 22.1373 5.97598 22.1373 6.35692C22.1372 6.73769 22.446 7.04652 22.8269 7.04652Z" fill="#F49A30"/>
<path d="M22.8269 11.1843C27.0146 11.1892 30.4081 14.5828 30.413 18.7704C30.413 19.1512 30.7218 19.4601 31.1027 19.4601C31.4836 19.4601 31.7924 19.1513 31.7924 18.7704C31.7867 13.8213 27.7761 9.81063 22.8269 9.80493C22.4461 9.80493 22.1373 10.1137 22.1373 10.4946C22.1373 10.8755 22.446 11.1843 22.8269 11.1843Z" fill="#F49A30"/>
<path d="M22.8269 15.3224C24.7304 15.3247 26.2729 16.8671 26.2752 18.7706C26.2752 19.1515 26.5839 19.4603 26.9648 19.4603C27.3457 19.4603 27.6545 19.1516 27.6545 18.7706C27.6515 16.1057 25.4919 13.9462 22.827 13.9431C22.4461 13.9431 22.1373 14.2519 22.1373 14.6328C22.1372 15.0136 22.446 15.3224 22.8269 15.3224Z" fill="#F49A30"/>
</g>
<defs>
<clipPath id="clip0">
<rect x="0.0686646" y="0.839844" width="40" height="40" fill="white"/>
</clipPath>
</defs>
</svg>
