<svg width="100" height="101" viewBox="0 0 100 101" fill="none" xmlns="http://www.w3.org/2000/svg">
<g clip-path="url(#clip0)">
<path d="M50.0002 9.40112C38.1633 9.40112 28.532 19.0302 28.532 30.8693V41.2988C28.532 53.1357 38.1633 62.7669 50.0002 62.7669C58.2068 62.7669 65.3557 58.1369 68.9645 51.3505C66.3104 52.389 63.4525 52.9425 60.5305 52.9425H54.2912C52.5125 52.9425 51.0729 51.5007 51.0729 49.7242C51.0729 47.9455 52.5125 46.5058 54.2912 46.5058H60.5305C64.5662 46.5058 68.4303 45.0425 71.4361 42.4701C71.4576 42.0818 71.4684 41.6912 71.4684 41.2986V30.8691C71.4684 19.0302 61.8371 9.40112 50.0002 9.40112Z" fill="#F49A30"/>
<path d="M80.2363 27.4834H79.859C78.1711 12.5014 65.4254 0.818359 50.0002 0.818359C34.575 0.818359 21.8291 12.5014 20.1414 27.4832H19.7641C15.068 27.4832 11.2475 31.3039 11.2475 35.9998C11.2475 40.6957 15.068 44.5164 19.7641 44.5164H23.168C24.9453 44.5164 26.3863 43.0754 26.3863 41.298V30.8686C26.3863 17.8478 36.9797 7.25469 50.0004 7.25469C63.0211 7.25469 73.6145 17.8479 73.6145 30.8687V40.2227C72.9559 41.0439 72.225 41.7959 71.4363 42.4699C71.2646 45.6646 70.3893 48.6748 68.9646 51.3502C72.6129 49.9252 75.8816 47.5863 78.4184 44.5164H80.2365C84.9326 44.5164 88.7529 40.6957 88.7529 35.9998C88.7529 31.3039 84.9322 27.4834 80.2363 27.4834Z" fill="#F49A30"/>
<path d="M99.192 96.6122L89.5435 66.6911C89.2918 65.911 88.7523 65.2563 88.0348 64.8608L73.2527 56.7075C68.8109 63.3882 61.5701 68.0532 53.2176 69.0169V100.818H96.1289C98.316 100.818 99.8594 98.6825 99.192 96.6122Z" fill="#F49A30"/>
<path d="M26.7475 56.7075L11.9654 64.8606C11.2481 65.2565 10.7084 65.911 10.4566 66.6909L0.808403 96.6122C0.138481 98.6901 1.69161 100.818 3.87129 100.818H46.7811V69.0167C38.4291 68.0528 31.1891 63.3878 26.7475 56.7075Z" fill="#F49A30"/>
</g>
<defs>
<clipPath id="clip0">
<rect y="0.818359" width="100" height="100" fill="white"/>
</clipPath>
</defs>
</svg>
