<svg width="31" height="31" viewBox="0 0 31 31" fill="none" xmlns="http://www.w3.org/2000/svg">
<path fill-rule="evenodd" clip-rule="evenodd" d="M0.386841 6.05957C0.386841 2.74586 3.07313 0.0595703 6.38684 0.0595703H24.3868C27.7006 0.0595703 30.3868 2.74586 30.3868 6.05957V24.1728C30.3868 27.4865 27.7006 30.1728 24.3868 30.1728H6.38684C3.07313 30.1728 0.386841 27.4865 0.386841 24.1728V6.05957ZM15.5494 5.42161C10.1517 5.42161 5.7603 9.66953 5.7603 14.8917C5.7603 16.4664 6.16224 18.0099 6.92821 19.3825L5.48702 23.5265C5.36634 23.8733 5.4561 24.256 5.71941 24.5183C5.9099 24.7087 6.16822 24.8097 6.43152 24.8097C6.53226 24.8097 6.63399 24.7951 6.73373 24.764L11.2069 23.3808C12.5484 24.0219 14.0404 24.3599 15.5494 24.3599C20.9482 24.3599 25.3406 20.113 25.3406 14.8917C25.3406 9.66953 20.9482 5.42161 15.5494 5.42161ZM15.5474 22.4181C14.2269 22.4181 12.9234 22.0946 11.7784 21.4817C11.6308 21.403 11.4652 21.3622 11.2987 21.3622C11.1979 21.3622 11.0962 21.3768 10.9955 21.4079L8.00636 22.3317L8.95984 19.5923C9.05459 19.3203 9.02068 19.0202 8.86709 18.7744C8.13802 17.6087 7.75303 16.2663 7.75303 14.8927C7.75303 10.7429 11.2498 7.36538 15.5474 7.36538C19.8461 7.36538 23.3438 10.7429 23.3438 14.8927C23.3438 19.0415 19.8471 22.4181 15.5474 22.4181ZM19.6877 16.6571C19.8407 16.7291 19.9439 16.7776 19.9887 16.8482C20.0436 16.9346 20.0436 17.3533 19.864 17.839C19.6835 18.3247 18.8028 18.7958 18.4089 18.8298C18.3408 18.8358 18.2846 18.849 18.2269 18.8626C18.1434 18.8823 18.0569 18.9027 17.9271 18.9027C17.6259 18.9027 17.0914 18.7929 15.8217 18.3092C13.788 17.5344 12.4491 15.6071 12.1827 15.2237C12.1622 15.1942 12.1481 15.1738 12.1404 15.1638C12.0307 15.0249 11.2588 14.036 11.2588 13.0102C11.2588 12.0512 11.7479 11.5481 11.9717 11.3179C11.987 11.3021 12.0012 11.2876 12.0138 11.2743C12.2122 11.0645 12.4446 11.012 12.5882 11.012C12.664 11.012 12.739 11.017 12.8109 11.0218C12.8772 11.0263 12.9408 11.0305 13.0002 11.0305C13.0154 11.0305 13.0316 11.0294 13.0485 11.0282C13.0669 11.027 13.0861 11.0256 13.1059 11.0256C13.2176 11.0256 13.3522 11.0655 13.4859 11.3763C13.5574 11.5409 13.6676 11.7996 13.7781 12.0592C13.9482 12.4585 14.1191 12.8598 14.1511 12.9228C14.206 13.0267 14.2409 13.1491 14.1701 13.288C14.1604 13.307 14.1513 13.3251 14.1427 13.3424C14.0881 13.4513 14.0486 13.53 13.9556 13.6348C13.9129 13.6822 13.8689 13.7336 13.8254 13.7845C13.7573 13.8642 13.6905 13.9424 13.6315 14.001C13.5228 14.104 13.4101 14.2177 13.5357 14.4246C13.6624 14.6334 14.0953 15.3153 14.7356 15.8681C15.4328 16.4681 16.0377 16.7187 16.3384 16.8433C16.3925 16.8658 16.4368 16.8841 16.47 16.8997C16.5618 16.9453 16.6385 16.9677 16.7044 16.9677C16.7921 16.9677 16.865 16.9278 16.9358 16.8482C17.0604 16.7083 17.4743 16.2401 17.618 16.0312C17.6987 15.9137 17.7805 15.8729 17.8723 15.8729C17.9421 15.8729 18.0179 15.8972 18.1037 15.9273C18.2852 15.9919 19.2046 16.4279 19.5135 16.5744C19.539 16.5865 19.5604 16.5966 19.5768 16.6044C19.6162 16.6235 19.6532 16.6409 19.6877 16.6571Z" fill="#F49A30"/>
</svg>
